# xmcd CD database file
#
# Track frame offsets:
#	150
#	24645
#	45464
#	61529
#	83017
#	102745
#	121864
#	140812
#	162024
#	183030
#	196955
#	212432
#
# Disc length: 3196 seconds
#
# Revision: 1
# Processed by: cddbd v1.5PL3 Copyright (c) Steve Scherf et al.
# Submitted via: CDex 1.51
#
DISCID=960c7a0c
DTITLE=Various Artist - BEST SELLERS JAZZ
DYEAR=1900
DGENRE=Jazz
TTITLE0=TAKE FIVE
TTITLE1=DJANGO
TTITLE2=FOUR BROTHERS
TTITLE3=O GRANDE AMOR
TTITLE4=RALPH'S NEW BLUES
TTITLE5=WORK SONG
TTITLE6=GET ME TO THE CHURCH ON TIME
TTITLE7=ANGEL EYES
TTITLE8=LOTUS BLOSSOM
TTITLE9=SIDE BY SIDE
TTITLE10=BUTTERCORN LADY
TTITLE11=LEFT ALONE
EXTD=
EXTT0=
EXTT1=
EXTT2=
EXTT3=
EXTT4=
EXTT5=
EXTT6=
EXTT7=
EXTT8=
EXTT9=
EXTT10=
EXTT11=
PLAYORDER=
